<svg width="16" height="16" viewBox="0 0 16 16" fill="none" xmlns="http://www.w3.org/2000/svg">
<path d="M9.905 11.4275V10.6675H9.145V11.4275H5.335V10.6675H4.575V8.38249H5.335V7.61749H9.145V8.38249H9.905V7.61749H15.24V8.38249H16V6.85749H12.955V6.09999H12.195V6.85999H7.62V6.09999H6.86V5.33499H7.62V4.57249H12.195V5.33249H12.955V3.04999H12.195V3.80999H7.62V3.04999H6.86V3.80999H0.765V4.57499H0V6.85999H0.765V7.61999H1.525V8.38499H2.29V7.61999H3.81V8.38499H3.05V10.67H3.81V11.43H2.29V10.67H1.525V11.43H0.765V12.195H0V14.48H0.765V15.24H16V13.715H15.24V14.48H9.145V13.715H8.385V12.955H9.145V12.195H15.24V12.955H16V10.67H15.24V11.43L9.905 11.4275ZM3.05 6.09999H1.525V5.33499H3.05V6.09999ZM6.86 12.955H6.1V13.715H6.86V14.48H6.1V13.715H5.335V12.955H6.1V12.195H6.86V12.955Z" fill="#605441"/>
<path d="M14.48 8.38251H15.24V10.6675H14.48V8.38251ZM9.905 12.9525H15.24V13.7125H9.905V12.9525ZM10.67 9.90251H13.715V10.6675H10.67V9.90251ZM10.67 8.38251H13.715V9.14251H10.67V8.38251ZM8.385 5.33251H12.195V6.09751H8.385V5.33251ZM8.385 2.28751H12.195V3.04751H8.385V2.28751ZM8.385 8.38251H9.145V10.6675H8.385V8.38251ZM6.1 2.28751H6.86V3.04751H6.1V2.28751ZM1.525 2.28751H3.05V3.04751H1.525V2.28751ZM6.86 1.52251V2.28751H7.62V1.52251H12.195V2.28751H12.955V0.762512H0.765V1.52251H6.86ZM0.765 8.38251H1.525V10.6675H0.765V8.38251ZM0 1.52251H0.765V3.80751H0V1.52251Z" fill="#78613A"/>
</svg>
